<svg width="431" height="24" viewBox="0 0 431 24" fill="none" xmlns="http://www.w3.org/2000/svg">
<path d="M415.398 6.81818H414.428L412.022 8.41406V9.37855L414.409 7.79261H414.468V17H415.398V6.81818ZM421.831 6.34091H421.001L417.72 18.5312H418.55L421.831 6.34091ZM426.636 17.1392C428.545 17.1392 429.937 15.9062 429.937 14.2756C429.937 12.983 429.142 12.0334 427.844 11.7749V11.7102C428.913 11.392 429.589 10.527 429.589 9.36364C429.589 7.90696 428.446 6.67898 426.656 6.67898C424.951 6.67898 423.589 7.77273 423.549 9.36364H424.449C424.478 8.22514 425.463 7.49929 426.646 7.49929C427.874 7.49929 428.684 8.27983 428.684 9.40341C428.684 10.5916 427.735 11.3523 426.417 11.3523H425.821V12.1875H426.417C428.028 12.1875 429.023 13.0376 429.023 14.2756C429.023 15.4489 428.033 16.304 426.626 16.304C425.329 16.304 424.314 15.5682 424.265 14.4545H423.325C423.375 16.0405 424.747 17.1392 426.636 17.1392Z" fill="#32292F"/>
<path d="M402.001 17.0219L0.0012207 18" stroke="#D6D4D5"/>
<rect x="0.0012207" y="16" width="122" height="2" fill="#32292F"/>
</svg>
